<svg width="22" height="13" viewBox="0 0 22 13" fill="none" xmlns="http://www.w3.org/2000/svg">
<path d="M20.334 10.667C20.8862 10.6671 21.334 11.1148 21.334 11.667C21.3337 12.219 20.886 12.6669 20.334 12.667H1C0.447934 12.6669 0.000246225 12.219 0 11.667C0 11.1148 0.447783 10.6671 1 10.667H20.334ZM20.334 5.33301C20.8861 5.33314 21.3339 5.78089 21.334 6.33301C21.334 6.88521 20.8862 7.33288 20.334 7.33301H1C0.447783 7.33293 0 6.88524 0 6.33301C0.000105103 5.78086 0.447847 5.33309 1 5.33301H20.334ZM20.334 0C20.8862 0.000129698 21.334 0.447795 21.334 1C21.3339 1.55214 20.8861 1.99987 20.334 2H1C0.447827 1.99992 7.12957e-05 1.55218 0 1C0 0.447764 0.447783 7.91808e-05 1 0H20.334Z" fill="#1A1A41"/>
</svg>
