<svg width="53" height="53" viewBox="0 0 53 53" fill="none" xmlns="http://www.w3.org/2000/svg">
<path d="M26.25 0C33.2119 0 39.8887 2.76562 44.8116 7.68845C49.7344 12.6113 52.5 19.2881 52.5 26.25C52.5 33.2119 49.7344 39.8887 44.8116 44.8116C39.8887 49.7344 33.2119 52.5 26.25 52.5C19.2881 52.5 12.6113 49.7344 7.68845 44.8116C2.76562 39.8887 0 33.2119 0 26.25C0 19.2881 2.76562 12.6113 7.68845 7.68845C12.6113 2.76562 19.2881 0 26.25 0ZM22.98 31.4287L17.1488 25.5938C16.9397 25.3847 16.6915 25.2189 16.4184 25.1057C16.1453 24.9926 15.8525 24.9344 15.5569 24.9344C15.2612 24.9344 14.9685 24.9926 14.6954 25.1057C14.4222 25.2189 14.174 25.3847 13.965 25.5938C13.5428 26.0159 13.3056 26.5886 13.3056 27.1856C13.3056 27.7827 13.5428 28.3553 13.965 28.7775L21.39 36.2025C21.5985 36.4126 21.8464 36.5794 22.1196 36.6932C22.3929 36.807 22.6859 36.8656 22.9819 36.8656C23.2778 36.8656 23.5709 36.807 23.8441 36.6932C24.1173 36.5794 24.3653 36.4126 24.5737 36.2025L39.9487 20.8237C40.1606 20.6156 40.3291 20.3675 40.4446 20.0939C40.5601 19.8202 40.6203 19.5264 40.6217 19.2294C40.623 18.9324 40.5656 18.6381 40.4527 18.3634C40.3397 18.0887 40.1735 17.8391 39.9636 17.6289C39.7537 17.4188 39.5043 17.2523 39.2297 17.139C38.9552 17.0257 38.6609 16.9679 38.3639 16.969C38.0669 16.97 37.773 17.0298 37.4992 17.145C37.2254 17.2602 36.9772 17.4284 36.7688 17.64L22.98 31.4287Z" fill="#76CE00"/>
</svg>
