<svg width="79" height="78" viewBox="0 0 79 78" fill="none" xmlns="http://www.w3.org/2000/svg">
<path d="M11.875 68.25C10.7704 68.25 9.875 67.3546 9.875 66.25V62.5859C9.875 62.051 10.0892 61.5385 10.4698 61.1627L13.0532 58.6121C14.3167 57.3645 16.4583 58.2596 16.4583 60.0353V66.25C16.4583 67.3546 15.5629 68.25 14.4583 68.25H11.875ZM25.0417 68.25C23.9371 68.25 23.0417 67.3546 23.0417 66.25V49.5859C23.0417 49.051 23.2559 48.5385 23.6365 48.1627L26.2198 45.6121C27.4834 44.3645 29.625 45.2596 29.625 47.0353V66.25C29.625 67.3546 28.7296 68.25 27.625 68.25H25.0417ZM38.2083 68.25C37.1038 68.25 36.2083 67.3546 36.2083 66.25V47.0773C36.2083 45.2957 38.3623 44.4033 39.6223 45.6629L42.2057 48.2454C42.5809 48.6205 42.7917 49.1293 42.7917 49.6599V66.25C42.7917 67.3546 41.8962 68.25 40.7917 68.25H38.2083ZM51.375 68.25C50.2704 68.25 49.375 67.3546 49.375 66.25V49.6671C49.375 49.1323 49.5892 48.6197 49.9698 48.244L52.5532 45.6933C53.8167 44.4458 55.9583 45.3408 55.9583 47.1165V66.25C55.9583 67.3546 55.0629 68.25 53.9583 68.25H51.375ZM64.5417 68.25C63.4371 68.25 62.5417 67.3546 62.5417 66.25V36.5859C62.5417 36.0511 62.7559 35.5385 63.1365 35.1627L65.7198 32.6121C66.9834 31.3645 69.125 32.2596 69.125 34.0353V66.25C69.125 67.3546 68.2296 68.25 67.125 68.25H64.5417ZM13.2802 48.0692C12.0166 49.3167 9.875 48.4217 9.875 46.646V43.0859C9.875 42.551 10.0892 42.0385 10.4698 41.6627L31.5115 20.8874C32.2904 20.1183 33.5429 20.1183 34.3218 20.8874L44.6782 31.1126C45.4571 31.8817 46.7096 31.8817 47.4885 31.1126L65.7198 13.1121C66.9834 11.8645 69.125 12.7596 69.125 14.5353V18.0953C69.125 18.6302 68.9108 19.1428 68.5302 19.5185L47.4885 40.2939C46.7096 41.0629 45.4571 41.0629 44.6782 40.2939L34.3218 30.0686C33.5429 29.2996 32.2904 29.2996 31.5115 30.0686L13.2802 48.0692Z" fill="#1A1A41"/>
</svg>
