<svg width="79" height="78" viewBox="0 0 79 78" fill="none" xmlns="http://www.w3.org/2000/svg">
<path d="M19.7498 26H49.3748V19.5C49.3748 16.7917 48.4148 14.4896 46.4946 12.5938C44.5745 10.6979 42.2429 9.75 39.4998 9.75C36.7568 9.75 34.4252 10.6979 32.505 12.5938C30.5849 14.4896 29.6248 16.7917 29.6248 19.5H23.0415C23.0415 15.0042 24.6462 11.1719 27.8556 8.00312C31.0649 4.83437 34.9464 3.25 39.4998 3.25C44.0533 3.25 47.9347 4.83437 51.1441 8.00312C54.3535 11.1719 55.9582 15.0042 55.9582 19.5V26H59.2498C61.0603 26 62.6101 26.6365 63.8993 27.9094C65.1886 29.1823 65.8332 30.7125 65.8332 32.5V65C65.8332 66.7875 65.1886 68.3177 63.8993 69.5906C62.6101 70.8635 61.0603 71.5 59.2498 71.5H19.7498C17.9394 71.5 16.3896 70.8635 15.1004 69.5906C13.8111 68.3177 13.1665 66.7875 13.1665 65V32.5C13.1665 30.7125 13.8111 29.1823 15.1004 27.9094C16.3896 26.6365 17.9394 26 19.7498 26ZM19.7498 65H59.2498V32.5H19.7498V65ZM39.4998 55.25C41.3103 55.25 42.8601 54.6135 44.1493 53.3406C45.4386 52.0677 46.0832 50.5375 46.0832 48.75C46.0832 46.9625 45.4386 45.4323 44.1493 44.1594C42.8601 42.8865 41.3103 42.25 39.4998 42.25C37.6894 42.25 36.1396 42.8865 34.8504 44.1594C33.5611 45.4323 32.9165 46.9625 32.9165 48.75C32.9165 50.5375 33.5611 52.0677 34.8504 53.3406C36.1396 54.6135 37.6894 55.25 39.4998 55.25Z" fill="#1A1A41"/>
</svg>
