<svg width="80" height="23" viewBox="0 0 80 23" fill="none" xmlns="http://www.w3.org/2000/svg">
<path d="M0 0.165334H4.7898C8.31274 0.165334 10.6122 2.37254 10.6122 5.77842C10.6122 9.18429 8.38216 11.6808 4.68568 11.6808H0V0.165334ZM2.61183 9.66376H4.57287C6.88968 9.66376 7.91359 8.01869 7.91359 5.77842C7.91359 3.89361 6.95042 2.17414 4.59023 2.17414H2.61183V9.66376ZM15.8619 0.165334V11.6808H13.2501V0.165334H15.8619ZM29.6065 11.6726H27.6889C27.5848 11.3171 27.524 10.9203 27.4893 10.54C26.8212 11.3998 25.6411 11.871 23.9577 11.871C20.4521 11.871 18.4911 9.34963 18.4911 6.06775C18.4911 2.60401 20.5996 0 24.4089 0C27.5153 0 29.3462 1.66987 29.6413 3.63735H27.0294C26.7778 2.86854 26.1443 1.95094 24.3742 1.95094C21.8925 1.95094 21.1897 3.92668 21.1897 5.96028C21.1897 7.99389 21.9967 9.89523 24.3916 9.89523C26.6303 9.89523 27.0381 8.41549 27.0381 7.39042V7.28296H24.3916V5.24108H29.6065V11.6808V11.6726ZM35.2294 0.165334V11.6808H32.6175V0.165334H35.2294Z" fill="white"/>
<path d="M40.3094 1.97193H36.6973V0H46.4833V1.97193H42.8797V11.1211H40.3094V1.97193ZM50.9408 6.67423V11.1211H48.4302V0H53.6563C56.2522 0 57.6441 1.33325 57.6441 3.04971C57.6441 4.54263 56.7731 5.34896 55.9192 5.68427C56.5084 5.88386 57.3965 6.45867 57.3965 8.44657V8.99743C57.3965 9.74789 57.3965 10.5941 57.5673 11.1211H55.1336C54.9201 10.6341 54.8859 9.80377 54.8859 8.62221V8.46254C54.8859 7.24904 54.5615 6.67423 52.6401 6.67423H50.9493H50.9408ZM50.9408 4.75818H53.0927C54.5017 4.75818 55.0397 4.25522 55.0397 3.32913C55.0397 2.40304 54.4077 1.91605 53.1525 1.91605H50.9323V4.75818H50.9408ZM68.4549 6.33094H62.7677V9.15711H69.0441L68.7367 11.129H60.2742V0.00798371H68.7025V1.97991H62.7677V4.35901H68.4549V6.33094ZM80 6.33094H73.7236V9.15711H80V11.129H71.2301V0.00798371H80V1.97991H73.7236V4.35901H80V6.33094Z" fill="#76CE00"/>
<path d="M4.95894 18.623H0.649792V22.2544H5.36078L5.26673 22.8772H0V14.2196H5.17268V14.8424H0.649792V18.009H4.95039V18.623H4.95894ZM8.95174 14.2196H11.7476C14.0646 14.2196 15.6634 15.8774 15.6634 18.4739C15.6634 21.0703 14.0988 22.8772 11.739 22.8772H8.95174V14.2196ZM9.60153 22.2544H11.6364C13.8679 22.2544 14.9623 20.6492 14.9623 18.5089C14.9623 16.6055 13.9705 14.8336 11.6364 14.8336H9.60153V22.2544ZM20.1264 14.2196V19.4651C20.1264 21.7632 21.3918 22.3597 22.5888 22.3597C23.9995 22.3597 25.0426 21.7545 25.0426 19.4651V14.2196H25.7095V19.4212C25.7095 22.1316 24.3159 22.9649 22.5632 22.9649C20.8104 22.9649 19.451 22.0351 19.451 19.5265V14.2108H20.1264V14.2196ZM36.3114 20.5615C35.9095 21.9299 34.9263 22.9737 33.1394 22.9737C30.7198 22.9737 29.4373 20.9913 29.4373 18.5616C29.4373 16.1318 30.6941 14.0968 33.1479 14.0968C34.9691 14.0968 36.0378 15.1319 36.3199 16.5792H35.6702C35.2854 15.4564 34.5758 14.7108 33.1137 14.7108C31.019 14.7108 30.1384 16.6757 30.1384 18.544C30.1384 20.4124 31.0019 22.3509 33.165 22.3509C34.5416 22.3509 35.2341 21.6229 35.6616 20.5615H36.3114ZM40.8343 19.8861L39.7655 22.8772H39.0987L42.1937 14.2196H42.9632L46.1951 22.8772H45.4854L44.391 19.8861H40.8343ZM44.1773 19.2633C43.2368 16.6932 42.758 15.4564 42.587 14.8775H42.5785C42.3733 15.5354 41.8346 17.0616 41.0737 19.2633H44.1858H44.1773ZM50.2819 14.8424H47.4519V14.2196H53.7874V14.8424H50.9403V22.8772H50.2819V14.8424ZM57.6177 14.2196V22.8772H56.9679V14.2196H57.6177ZM68.9891 18.4914C68.9891 20.851 67.7579 23 65.1587 23C62.7819 23 61.3968 21.0352 61.3968 18.5528C61.3968 16.0704 62.7391 14.1056 65.2442 14.1056C67.5612 14.1056 68.9891 15.9739 68.9891 18.4914ZM62.0979 18.5089C62.0979 20.5001 63.1666 22.3772 65.1929 22.3772C67.3731 22.3772 68.288 20.544 68.288 18.4914C68.288 16.4388 67.2534 14.7108 65.2186 14.7108C63.0469 14.7108 62.0979 16.5529 62.0979 18.5089ZM72.7681 22.8772V14.2196H73.7343C75.0509 16.2985 78.1289 21.1317 78.659 22.0702H78.6675C78.5992 20.8247 78.6077 19.544 78.6077 18.1405V14.2196H79.266V22.8772H78.3769C77.12 20.8773 73.9908 15.8424 73.3923 14.895H73.3837C73.4436 16.0353 73.435 17.2897 73.435 18.8598V22.8772H72.7767H72.7681Z" fill="white"/>
</svg>
