<svg width="128" height="52" viewBox="0 0 128 52" fill="none" xmlns="http://www.w3.org/2000/svg">
<path d="M16 12.1963H21.7478C25.9753 12.1963 28.7346 14.8164 28.7346 18.8594C28.7346 22.9025 26.0586 25.866 21.6228 25.866H16V12.1963ZM19.1342 23.4716H21.4874C24.2676 23.4716 25.4963 21.5188 25.4963 18.8594C25.4963 16.622 24.3405 14.5809 21.5083 14.5809H19.1342V23.4716ZM35.0343 12.1963V25.866H31.9001V12.1963H35.0343ZM51.5279 25.8562H49.2267C49.1017 25.4343 49.0288 24.9632 48.9872 24.5118C48.1854 25.5324 46.7693 26.0917 44.7492 26.0917C40.5425 26.0917 38.1893 23.0987 38.1893 19.2029C38.1893 15.0912 40.7196 12 45.2907 12C49.0184 12 51.2155 13.9823 51.5695 16.3178H48.4353C48.1333 15.4052 47.3732 14.3159 45.249 14.3159C42.271 14.3159 41.4276 16.6613 41.4276 19.0753C41.4276 21.4894 42.396 23.7464 45.2699 23.7464C47.9563 23.7464 48.4457 21.9898 48.4457 20.773V20.6454H45.2699V18.2216H51.5279V25.866V25.8562ZM58.2752 12.1963V25.866H55.141V12.1963H58.2752Z" fill="#1A1A41"/>
<path d="M64.3712 14.3408H60.0367V12H71.7799V14.3408H67.4556V25.2015H64.3712V14.3408ZM77.1289 19.9228V25.2015H74.1163V12H80.3875C83.5027 12 85.173 13.5827 85.173 15.6202C85.173 17.3924 84.1278 18.3496 83.103 18.7477C83.8101 18.9846 84.8758 19.6669 84.8758 22.0267V22.6806C84.8758 23.5715 84.8758 24.576 85.0807 25.2015H82.1603C81.9041 24.6234 81.8631 23.6378 81.8631 22.2352V22.0457C81.8631 20.6052 81.4737 19.9228 79.1681 19.9228H77.1392H77.1289ZM77.1289 17.6483H79.7112C81.402 17.6483 82.0476 17.0513 82.0476 15.9519C82.0476 14.8526 81.2893 14.2745 79.783 14.2745H77.1187V17.6483H77.1289ZM98.1459 19.5153H91.3212V22.8702H98.8529L98.484 25.211H88.3291V12.0095H98.443V14.3503H91.3212V17.1745H98.1459V19.5153ZM112 19.5153H104.468V22.8702H112V25.211H101.476V12.0095H112V14.3503H104.468V17.1745H112V19.5153Z" fill="#76CE00"/>
<path d="M21.9507 34.1069H16.7798V38.4177H22.4329L22.3201 39.157H16V28.8797H22.2072V29.619H16.7798V33.378H21.9405V34.1069H21.9507ZM26.7421 28.8797H30.0971C32.8775 28.8797 34.7961 30.8477 34.7961 33.9298C34.7961 37.012 32.9185 39.157 30.0868 39.157H26.7421V28.8797ZM27.5218 38.4177H29.9637C32.6415 38.4177 33.9548 36.5122 33.9548 33.9715C33.9548 31.7119 32.7646 29.6086 29.9637 29.6086H27.5218V38.4177ZM40.1517 28.8797V35.1065C40.1517 37.8346 41.6702 38.5426 43.1066 38.5426C44.7995 38.5426 46.0512 37.8242 46.0512 35.1065V28.8797H46.8514V35.0544C46.8514 38.2719 45.1791 39.2611 43.0758 39.2611C40.9725 39.2611 39.3412 38.1574 39.3412 35.1794V28.8693H40.1517V28.8797ZM59.5737 36.408C59.0915 38.0324 57.9116 39.2715 55.7673 39.2715C52.8637 39.2715 51.3247 36.9183 51.3247 34.034C51.3247 31.1497 52.8329 28.7339 55.7775 28.7339C57.9629 28.7339 59.2454 29.9626 59.5839 31.6807H58.8042C58.3425 30.3479 57.4909 29.4628 55.7365 29.4628C53.2228 29.4628 52.166 31.7952 52.166 34.0131C52.166 36.231 53.2023 38.5322 55.798 38.5322C57.4499 38.5322 58.2809 37.668 58.7939 36.408H59.5737ZM65.0011 35.6063L63.7187 39.157H62.9184L66.6325 28.8797H67.5558L71.4341 39.157H70.5825L69.2692 35.6063H65.0011ZM69.0128 34.867C67.8842 31.8161 67.3096 30.3479 67.1044 29.6607H67.0942C66.8479 30.4416 66.2015 32.2534 65.2884 34.867H69.023H69.0128ZM76.3383 29.619H72.9423V28.8797H80.5448V29.619H77.1283V39.157H76.3383V29.619ZM85.1413 28.8797V39.157H84.3615V28.8797H85.1413ZM98.7869 33.9507C98.7869 36.7517 97.3095 39.3027 94.1905 39.3027C91.3382 39.3027 89.6761 36.9703 89.6761 34.0235C89.6761 31.0768 91.2869 28.7444 94.2931 28.7444C97.0735 28.7444 98.7869 30.9622 98.7869 33.9507ZM90.5174 33.9715C90.5174 36.3352 91.7999 38.5635 94.2315 38.5635C96.8478 38.5635 97.9456 36.3872 97.9456 33.9507C97.9456 31.5141 96.7041 29.4628 94.2623 29.4628C91.6563 29.4628 90.5174 31.6495 90.5174 33.9715ZM103.322 39.157V28.8797H104.481C106.061 31.3475 109.755 37.0849 110.391 38.199H110.401C110.319 36.7204 110.329 35.2002 110.329 33.5342V28.8797H111.119V39.157H110.052C108.544 36.7829 104.789 30.8061 104.071 29.6815H104.06C104.132 31.0351 104.122 32.5241 104.122 34.388V39.157H103.332H103.322Z" fill="#1A1A41"/>
</svg>
