<svg width="79" height="78" viewBox="0 0 79 78" fill="none" xmlns="http://www.w3.org/2000/svg">
<path d="M16.4585 71.5C13.7154 71.5 11.3838 70.5521 9.4637 68.6562C7.54357 66.7604 6.5835 64.4583 6.5835 61.75C6.5835 59.6375 7.20068 57.7417 8.43506 56.0625C9.66943 54.3833 11.2467 53.2188 13.1668 52.5687V45.5C13.1668 42.7917 14.1269 40.4896 16.047 38.5938C17.9672 36.6979 20.2988 35.75 23.0418 35.75H36.2085V25.4312C34.2884 24.7812 32.7111 23.6167 31.4767 21.9375C30.2423 20.2583 29.6252 18.3625 29.6252 16.25C29.6252 13.5417 30.5852 11.2396 32.5054 9.34375C34.4255 7.44792 36.7571 6.5 39.5002 6.5C42.2432 6.5 44.5748 7.44792 46.495 9.34375C48.4151 11.2396 49.3752 13.5417 49.3752 16.25C49.3752 18.3625 48.758 20.2583 47.5236 21.9375C46.2892 23.6167 44.712 24.7812 42.7918 25.4312V35.75H55.9585C58.7015 35.75 61.0331 36.6979 62.9533 38.5938C64.8734 40.4896 65.8335 42.7917 65.8335 45.5V52.5687C67.7536 53.2188 69.3309 54.3833 70.5653 56.0625C71.7996 57.7417 72.4168 59.6375 72.4168 61.75C72.4168 64.4583 71.4568 66.7604 69.5366 68.6562C67.6165 70.5521 65.2849 71.5 62.5418 71.5C59.7988 71.5 57.4672 70.5521 55.547 68.6562C53.6269 66.7604 52.6668 64.4583 52.6668 61.75C52.6668 59.6375 53.284 57.7417 54.5184 56.0625C55.7528 54.3833 57.33 53.2188 59.2502 52.5687V45.5C59.2502 44.5792 58.9347 43.8073 58.3038 43.1844C57.6729 42.5615 56.8911 42.25 55.9585 42.25H42.7918V52.5687C44.712 53.2188 46.2892 54.3833 47.5236 56.0625C48.758 57.7417 49.3752 59.6375 49.3752 61.75C49.3752 64.4583 48.4151 66.7604 46.495 68.6562C44.5748 70.5521 42.2432 71.5 39.5002 71.5C36.7571 71.5 34.4255 70.5521 32.5054 68.6562C30.5852 66.7604 29.6252 64.4583 29.6252 61.75C29.6252 59.6375 30.2423 57.7417 31.4767 56.0625C32.7111 54.3833 34.2884 53.2188 36.2085 52.5687V42.25H23.0418C22.1092 42.25 21.3274 42.5615 20.6965 43.1844C20.0656 43.8073 19.7502 44.5792 19.7502 45.5V52.5687C21.6703 53.2188 23.2476 54.3833 24.4819 56.0625C25.7163 57.7417 26.3335 59.6375 26.3335 61.75C26.3335 64.4583 25.3734 66.7604 23.4533 68.6562C21.5331 70.5521 19.2016 71.5 16.4585 71.5ZM16.4585 65C17.3911 65 18.1729 64.6885 18.8038 64.0656C19.4347 63.4427 19.7502 62.6708 19.7502 61.75C19.7502 60.8292 19.4347 60.0573 18.8038 59.4344C18.1729 58.8115 17.3911 58.5 16.4585 58.5C15.5259 58.5 14.7441 58.8115 14.1132 59.4344C13.4823 60.0573 13.1668 60.8292 13.1668 61.75C13.1668 62.6708 13.4823 63.4427 14.1132 64.0656C14.7441 64.6885 15.5259 65 16.4585 65ZM39.5002 65C40.4328 65 41.2146 64.6885 41.8455 64.0656C42.4764 63.4427 42.7918 62.6708 42.7918 61.75C42.7918 60.8292 42.4764 60.0573 41.8455 59.4344C41.2146 58.8115 40.4328 58.5 39.5002 58.5C38.5675 58.5 37.7858 58.8115 37.1548 59.4344C36.5239 60.0573 36.2085 60.8292 36.2085 61.75C36.2085 62.6708 36.5239 63.4427 37.1548 64.0656C37.7858 64.6885 38.5675 65 39.5002 65ZM62.5418 65C63.4745 65 64.2562 64.6885 64.8871 64.0656C65.518 63.4427 65.8335 62.6708 65.8335 61.75C65.8335 60.8292 65.518 60.0573 64.8871 59.4344C64.2562 58.8115 63.4745 58.5 62.5418 58.5C61.6092 58.5 60.8274 58.8115 60.1965 59.4344C59.5656 60.0573 59.2502 60.8292 59.2502 61.75C59.2502 62.6708 59.5656 63.4427 60.1965 64.0656C60.8274 64.6885 61.6092 65 62.5418 65ZM39.5002 19.5C40.4328 19.5 41.2146 19.1885 41.8455 18.5656C42.4764 17.9427 42.7918 17.1708 42.7918 16.25C42.7918 15.3292 42.4764 14.5573 41.8455 13.9344C41.2146 13.3115 40.4328 13 39.5002 13C38.5675 13 37.7858 13.3115 37.1548 13.9344C36.5239 14.5573 36.2085 15.3292 36.2085 16.25C36.2085 17.1708 36.5239 17.9427 37.1548 18.5656C37.7858 19.1885 38.5675 19.5 39.5002 19.5Z" fill="#1A1A41"/>
</svg>
